<svg width="96" height="80" viewBox="0 0 96 80" fill="none" xmlns="http://www.w3.org/2000/svg">
<path d="M51.2244 4.98651C75.4107 7.44894 93.2251 25.0935 91.2796 44.2023C89.3338 63.3109 68.3292 77.0025 44.1431 74.54C19.9571 72.0775 2.14357 54.4339 4.0887 35.3253C6.03418 16.2166 27.0382 2.52426 51.2244 4.98651Z" fill="#A5E701" stroke="#A5E701"/>
<path d="M12.6498 61.2904C13.0719 58.3357 12.7792 57.4525 13.0719 57.4915C20.2769 58.4517 25.4975 67.1469 24.8907 67.1998C24.2839 67.2528 22.2809 67.8611 21.2216 68.1508C20.1623 68.4406 18.1831 68.9681 17.0665 69.3135C15.6809 69.7422 14.6774 70.1206 13.5075 70.4586C12.9432 70.6217 12.1149 70.9665 10.882 71.3014C10.0319 71.5323 9.62152 71.6363 9.45699 71.647C9.37137 71.6526 9.25088 71.6421 9.27643 71.5581C9.35291 71.3064 9.5814 70.853 9.77302 70.3797C10.0396 69.7212 10.6343 68.5084 11.0619 67.4198C11.541 66.2003 11.8682 65.2728 12.0949 64.5118C12.5699 62.917 12.5292 62.1346 12.6498 61.2904Z" fill="#A5E701" stroke="#A5E701" stroke-width="4" stroke-linecap="round"/>
<path d="M30.1997 29.3212C30.2189 29.2165 30.5158 28.6319 30.853 28.1659C31.1477 27.7585 31.4126 27.4454 31.8829 26.9899C32.4766 26.4149 32.8913 26.3814 33.2235 26.2281C33.7088 26.0042 34.3698 25.8026 34.9446 25.6503C35.205 25.5812 35.645 25.5253 36.4632 25.4824C38.4662 25.3773 39.9592 25.4544 40.4606 25.5425C41.2383 25.6791 41.9109 26.0976 43.0048 26.8326C43.4688 27.1443 43.9483 27.6495 44.5008 28.2836C45.4807 29.4086 45.7058 31.254 45.8612 32.0058C45.8971 32.4049 45.9459 32.6672 45.9871 32.8659C46.0126 32.9752 46.0472 33.1018 46.0944 33.379" stroke="#262688" stroke-width="2" stroke-linecap="round"/>
<path d="M54.042 34.0897C54.0593 33.9851 54.3265 33.4004 54.6299 32.9345C54.8952 32.5271 55.1336 32.2139 55.5568 31.7585C56.0912 31.1834 56.4644 31.15 56.7634 30.9967C57.2001 30.7728 57.7951 30.5712 58.3124 30.4188C58.5468 30.3498 58.9427 30.2939 59.6791 30.2509C61.4819 30.1458 62.8255 30.223 63.2768 30.311C63.9767 30.4476 64.5821 30.8662 65.5666 31.6011C65.9842 31.9129 66.4158 32.4181 66.9129 33.0522C67.7949 34.1772 67.9975 36.0225 68.1373 36.7744C68.1697 37.1734 68.2136 37.4358 68.2507 37.6345C68.2736 37.7438 68.3047 37.8704 68.3472 38.1475" stroke="#262688" stroke-width="2" stroke-linecap="round"/>
<path d="M30.1997 36.5576C30.237 36.6543 30.3619 36.9825 30.7383 37.7625C31.043 38.3941 31.3466 38.7576 31.6171 39.3081C32.1041 40.2994 32.4609 40.8593 33.0543 41.6191C33.2622 41.8852 33.9623 42.6277 35.1753 43.7691C36.2379 44.7691 36.9402 45.1037 37.4375 45.4808C37.8621 45.8027 38.6447 46.3753 39.4306 46.8778C40.2166 47.3804 40.9844 47.7918 41.7313 48.1061C42.4783 48.4204 43.1813 48.6253 43.866 48.7786C45.1885 49.0747 45.9387 49.1259 47.0115 49.1631C48.0061 49.1976 49.9145 49.2746 51.1855 49.2733C53.0338 49.2715 53.7102 49.0826 54.3146 48.8954C54.834 48.7345 55.7874 48.4492 56.4228 48.2495C57.0582 48.0497 57.3472 47.9465 57.919 47.6947C59.3439 47.0673 60.2971 46.5612 60.6587 46.3106C62.1092 45.4684 62.7122 45.1879 62.9293 45.0692C63.066 45.0042 63.2565 44.9296 63.5785 44.835" stroke="#262688" stroke-width="2" stroke-linecap="round"/>
</svg>
