<svg width="99" height="65" viewBox="0 0 99 65" fill="none" xmlns="http://www.w3.org/2000/svg">
<path d="M19.8342 4.20346C27.6594 1.17888 39.3878 0.817008 43.807 0.817034C45.5749 0.817044 50.07 -0.0586908 53.0911 0.00312513C58.2504 0.10869 62.1421 0.189424 63.8903 0.310612C68.6067 0.527665 78.142 1.01014 84.525 5.12181C88.7656 7.85342 93.553 10.1986 95.8953 16.31C97.6829 20.9742 101.201 32.3833 97.0718 43.8382C94.962 49.691 91.1783 56.9238 87.2031 59.1687C83.8074 61.0864 77.2807 64.7664 65.0969 64.8713C57.079 64.9404 42.2865 65.2078 33.5427 64.6777C22.1329 63.9859 17.5227 63.1718 13.1998 60.6124C7.71469 57.3649 4.71347 55.7941 2.84404 52.5656C1.1821 49.6954 -1.01891 44.7816 0.522119 39.8988C2.65776 33.1319 7.22598 29.5522 9.44569 25.2207C11.7539 20.7164 11.7977 13.6089 15.0079 8.67782C16.3637 6.5953 17.5962 5.06848 19.8342 4.20346Z" fill="#FFF78A"/>
<path d="M27.8845 22C28.2465 22 30.0307 22.1902 37.9191 25.67C41.4193 27.214 44.764 28.4436 46.5374 29.219C47.2983 29.5517 47.8189 29.9495 48 30.2803C47.9631 30.429 47.6648 30.5391 43.8222 30.6531C39.9795 30.7672 32.6015 30.8818 25 31" stroke="#262688" stroke-width="2" stroke-linecap="round"/>
<path d="M78.1155 22C77.7535 22 75.9693 22.1902 68.0809 25.67C64.5807 27.214 61.236 28.4436 59.4626 29.219C58.7017 29.5517 58.1811 29.9495 58 30.2803C58.0369 30.429 58.3352 30.5391 62.1778 30.6531C66.0205 30.7672 73.3985 30.8818 81 31" stroke="#262688" stroke-width="2" stroke-linecap="round"/>
<path d="M17 43.3181C17.3275 43.3181 19.0464 43.4625 20.647 43.6277C22.5409 43.8231 23.8478 43.0467 26.7946 42.139C28.3983 41.6451 30.4449 43.8009 31.9415 44.6858C33.0646 45.3499 36.9942 45.1439 40.3652 44.6645C43.8472 44.1694 45.6879 42.2466 46.9039 42.1204C48.5336 41.9512 51.4698 44.5101 53.627 45.5718C55.6319 46.5585 59.1788 43.6861 61.8606 42.5927C63.7772 41.8113 66.0592 41.757 70.036 42.7037C71.8832 43.1435 74.5263 44.8723 77.1227 46C79.0468 45.8381 79.9396 45.3899 80.476 45.1287C80.7588 45.0073 81.0631 44.9088 82 44.6296" stroke="#262688" stroke-width="2" stroke-linecap="round"/>
</svg>
