<svg width="98" height="74" viewBox="0 0 98 74" fill="none" xmlns="http://www.w3.org/2000/svg">
<path d="M25.211 4.14822C30.0865 2.73777 44.0519 1.89607 46.545 1.89607C47.6528 1.68142 48.4164 1.56538 49.1547 1.41826C49.893 1.27114 50.585 1.09818 51.3052 0.835377C55.0372 -0.123253 60.0044 -1.28157 71.9367 3.81513C81.733 7.99949 89.9792 13.3625 93.4771 20.5324C95.5701 24.8226 98.0912 28.9073 97.9975 34.4029C97.785 46.853 97.9873 53.4484 93.8244 57.7312C87.3365 64.4062 82.1066 68.6554 77.3104 70.3717C72.9233 71.9416 66.3786 73.6018 55.9829 73.8685C49.4769 74.0354 40.5926 74.1181 35.3117 73.6479C28.3449 73.0275 23.5182 72.9477 14.2805 67.0945C7.56302 62.8382 0.814656 58.5488 0.260719 52.7219C-0.436205 45.3909 0.363905 32.5355 1.48247 28.8683C2.25061 26.3499 7.78023 18.0119 12.5747 12.7875C16.181 8.85787 19.6563 5.75516 25.211 4.14822Z" fill="#D5D5F5"/>
<path d="M56 35.7704C56.1224 35.5215 56.5313 34.7776 56.8822 34.0711C57.2413 33.3483 58.0928 32.6271 58.627 32.1261C59.3767 31.4231 60.8949 30.7958 62.8351 30.3565C66.0502 29.6285 68.4928 30.2097 69.2601 30.402C71.0529 30.8512 72.2624 31.5529 73.0532 32.0568C74 32.6601 74.7417 33.7519 75.423 34.8051C75.5842 35.0542 75.6786 35.2184 75.752 35.3713C75.8254 35.5242 75.8748 35.6608 76 36" stroke="#262688" stroke-width="2" stroke-linecap="round"/>
<path d="M24 48C24.1312 48.2279 24.7622 48.8926 25.4324 49.4473C26.3228 50.1842 27.185 50.5724 30.7905 52.6077C32.0768 53.3338 34.1706 54.0072 36.7498 54.7846C38.0675 55.1818 39.846 55.4249 43.6392 55.8277C46.0445 56.0832 49.5046 56.0134 52.1413 55.8822C54.778 55.751 56.5068 55.4508 58.3808 55.0051C62.2786 54.0781 64.7825 53.1767 66.5579 52.407C69.7322 50.9062 72.0172 49.7251 72.6329 49.2951C72.9551 49.0865 73.2968 48.8973 74 48.4908" stroke="#262688" stroke-width="2" stroke-linecap="round"/>
<path d="M23.8845 28C24.2465 28 26.0307 28.1902 33.9191 31.67C37.4193 33.214 40.764 34.4436 42.5374 35.219C43.2983 35.5517 43.8189 35.9495 44 36.2803C43.9631 36.429 43.6648 36.5391 39.8222 36.6531C35.9795 36.7672 28.6015 36.8818 21 37" stroke="#262688" stroke-width="2" stroke-linecap="round"/>
<path d="M24 46C25.9231 46.0376 30.6696 46.3799 32.6881 46.7052C33.3388 46.81 34.1736 47.0057 39.5684 47.2759C44.9632 47.5461 54.8922 47.8935 60.3687 48C66.5684 47.9618 67.5929 47.7851 68.9586 47.53C70.0448 47.3023 71.9293 46.8753 74 46.4353" stroke="#262688" stroke-width="2" stroke-linecap="round"/>
</svg>
