<svg width="110" height="79" viewBox="0 0 110 79" fill="none" xmlns="http://www.w3.org/2000/svg">
<rect y="13" width="110" height="66" rx="10" fill="white"/>
<path d="M0 16C0 10.4772 4.47715 6 10 6H100C105.523 6 110 10.4772 110 16V30H0V16Z" fill="#EC5656"/>
<path d="M20 5.41233C20.0921 5.12094 20.6328 4.06847 22.0406 2.19781C22.7766 1.21992 24.1876 1.252 25.1501 1.05146C26.1674 0.839512 27.3435 1.30779 28.418 1.98785C29.9268 2.94272 30.8359 5.28042 31.5499 6.99895C31.97 8.01006 31.9406 9.50021 31.999 14.3006C32.0196 15.99 31.7126 16.938 31.6321 17.9506C31.5612 18.8429 31.4851 19.6418 31.2969 20.1405C30.9273 21.12 29.8202 21.5408 28.9219 21.7414C28.4329 21.8164 27.7766 21.9036 26.8257 21.9832C26.2717 22.0157 25.5728 22.0322 24.4064 21.7246" stroke="#262688" stroke-width="2" stroke-linecap="round"/>
<path d="M41 5.41233C41.0844 5.12094 41.58 4.06847 42.8706 2.19781C43.5452 1.21992 44.8386 1.252 45.7209 1.05146C46.6534 0.839512 47.7315 1.30779 48.7165 1.98785C50.0995 2.94272 50.9329 5.28042 51.5874 6.99895C51.9725 8.01006 51.9455 9.50021 51.9991 14.3006C52.0179 15.99 51.7366 16.938 51.6628 17.9506C51.5978 18.8429 51.528 19.6418 51.3555 20.1405C51.0167 21.12 50.0019 21.5408 49.1784 21.7414C48.7302 21.8164 48.1286 21.9036 47.2569 21.9832C46.7491 22.0157 46.1084 22.0322 45.0392 21.7246" stroke="#262688" stroke-width="2" stroke-linecap="round"/>
<path d="M59 5.41233C59.0921 5.12094 59.6328 4.06847 61.0406 2.19781C61.7766 1.21992 63.1876 1.252 64.1501 1.05146C65.1674 0.839512 66.3435 1.30779 67.418 1.98785C68.9268 2.94272 69.8359 5.28042 70.5499 6.99895C70.97 8.01006 70.9406 9.50021 70.999 14.3006C71.0196 15.99 70.7126 16.938 70.6321 17.9506C70.5612 18.8429 70.4851 19.6418 70.2969 20.1405C69.9273 21.12 68.8202 21.5408 67.9219 21.7414C67.4329 21.8164 66.7766 21.9036 65.8257 21.9832C65.2717 22.0157 64.5728 22.0322 63.4064 21.7246" stroke="#262688" stroke-width="2" stroke-linecap="round"/>
<path d="M80 5.41233C80.0844 5.12094 80.58 4.06847 81.8706 2.19781C82.5452 1.21992 83.8386 1.252 84.7209 1.05146C85.6534 0.839512 86.7315 1.30779 87.7165 1.98785C89.0995 2.94272 89.9329 5.28042 90.5874 6.99895C90.9725 8.01006 90.9455 9.50021 90.9991 14.3006C91.0179 15.99 90.7366 16.938 90.6628 17.9506C90.5978 18.8429 90.528 19.6418 90.3555 20.1405C90.0167 21.12 89.0019 21.5408 88.1784 21.7414C87.7302 21.8164 87.1286 21.9036 86.2569 21.9832C85.7491 22.0157 85.1084 22.0322 84.0392 21.7246" stroke="#262688" stroke-width="2" stroke-linecap="round"/>
<path d="M13 43H20" stroke="#262688" stroke-width="2" stroke-linecap="round"/>
<path d="M13 54C13.0199 54 14.5991 54 17.1969 54C18.2257 54 18.6667 54 19.0293 54C19.3919 54 19.6628 54 20 54" stroke="#262688" stroke-width="2" stroke-linecap="round"/>
<path d="M12 64C12.0141 64 12.0282 64 13.1142 64C14.2003 64 16.358 64 17.5943 64C18.8306 64 19.0802 64 20 64" stroke="#262688" stroke-width="2" stroke-linecap="round"/>
<path d="M33 43H41" stroke="#262688" stroke-width="2" stroke-linecap="round"/>
<path d="M34 54C34.0199 54 35.5991 54 38.1969 54C39.2257 54 39.6667 54 40.0293 54C40.3919 54 40.6628 54 41 54" stroke="#262688" stroke-width="2" stroke-linecap="round"/>
<path d="M33 64C33.0123 64 33.0246 64 33.975 64C34.9253 64 36.8132 64 37.895 64C38.9768 64 39.1952 64 40 64" stroke="#262688" stroke-width="2" stroke-linecap="round"/>
<path d="M54 43H61" stroke="#262688" stroke-width="2" stroke-linecap="round"/>
<path d="M54 54C54.0199 54 55.5991 54 58.1969 54C59.2257 54 59.6667 54 60.0293 54C60.3919 54 60.6628 54 61 54" stroke="#262688" stroke-width="2" stroke-linecap="round"/>
<path d="M53 64C53.0141 64 53.0282 64 54.1142 64C55.2003 64 57.358 64 58.5943 64C59.8306 64 60.0802 64 61 64" stroke="#262688" stroke-width="2" stroke-linecap="round"/>
<path d="M74 43H81" stroke="#262688" stroke-width="2" stroke-linecap="round"/>
<path d="M74 54C74.0227 54 75.8276 54 78.7965 54C79.9723 54 80.4763 54 80.8907 54C81.3051 54 81.6146 54 82 54" stroke="#262688" stroke-width="2" stroke-linecap="round"/>
<path d="M73 64C73.0141 64 73.0282 64 74.1142 64C75.2003 64 77.358 64 78.5943 64C79.8306 64 80.0802 64 81 64" stroke="#262688" stroke-width="2" stroke-linecap="round"/>
<path d="M93 43H100" stroke="#262688" stroke-width="2" stroke-linecap="round"/>
<path d="M93 54C93.0199 54 94.5991 54 97.1969 54C98.2257 54 98.6667 54 99.0293 54C99.3919 54 99.6628 54 100 54" stroke="#262688" stroke-width="2" stroke-linecap="round"/>
<path d="M92 64C92.0141 64 92.0282 64 93.1142 64C94.2003 64 96.358 64 97.5943 64C98.8306 64 99.0802 64 100 64" stroke="#262688" stroke-width="2" stroke-linecap="round"/>
</svg>
