<svg width="251" height="132" viewBox="0 0 251 132" fill="none" xmlns="http://www.w3.org/2000/svg">
<path d="M157.202 89.2885C153.695 89.0696 154.388 88.6968 153.778 92.2935C152.866 97.6672 151.808 102.986 149.121 107.811C143.333 118.2 129.347 119.856 121.522 111.095C116.242 105.185 116.403 95.2767 121.815 89.2041C125.705 84.8389 130.765 82.6599 136.242 81.2169C139.183 80.442 142.198 80.1584 145.221 79.9845C146.049 79.9368 146.334 79.5983 146.371 78.8215C146.57 74.5879 146.794 70.3556 147.003 66.1225C147.022 65.732 147.081 65.3175 146.666 64.9191C144.895 65.5934 143.081 66.2831 141.171 66.6962C130.709 68.9587 123.017 62.5537 121.09 52.9733C119.883 46.9718 120.169 40.9833 121.071 34.9853C121.692 30.8553 125.534 30.683 128.32 31.7538C130.536 32.6052 131.318 33.9325 131.167 36.3119C130.926 40.0976 130.368 43.8642 130.59 47.677C130.749 50.4035 130.998 53.0933 132.308 55.5645C134.418 59.543 139.178 60.0962 142.155 56.6987C144.26 54.2948 145.064 51.3188 145.749 48.312C146.639 44.4041 146.904 40.4166 147.116 36.4253C147.259 33.7402 148.474 32.4868 151.148 32.107C152.291 31.9447 153.394 32.074 154.435 32.4914C155.857 33.0614 156.724 34.0432 156.899 35.7048C157.232 38.852 157.259 42.0094 157.243 45.1564C157.213 50.9898 157.083 56.827 156.805 62.6535C156.557 67.8407 156.048 73.0152 155.665 78.1961C155.475 80.7729 155.473 80.3983 157.804 80.5667C160.387 80.7533 162.97 80.9378 165.553 81.1395C170.042 81.4899 174.543 81.5857 179.032 80.9823C181.761 80.6154 184.014 81.9649 184.564 84.2328C185.119 86.5233 183.679 88.6439 181.027 89.3596C178.504 90.0408 175.911 90.1368 173.319 90.1108C167.976 90.057 162.651 89.6071 157.202 89.2885ZM143.087 99.0643C144.228 96.0548 144.515 92.8614 145.095 89.7306C145.288 88.6887 144.655 88.6026 143.902 88.6456C139.133 88.9178 134.705 90.2271 131.007 93.3564C128.47 95.5033 126.899 98.2149 127.159 101.724C127.452 105.684 132.071 110.359 137.196 107.176C140.204 105.308 141.885 102.483 143.087 99.0643Z" fill="#262688"/>
<path d="M26.518 80.3389C26.0875 77.1607 25.9517 74.1037 27.2252 71.1631C28.2242 68.8565 30.3011 67.696 32.4764 68.208C34.9557 68.7916 36.3117 70.6747 36.1344 73.3391C35.9432 76.2099 35.6399 79.0726 36.7033 81.8707C38.3047 86.0844 41.7695 88.1997 45.9655 87.4485C48.2201 87.0449 49.6369 85.6378 50.4916 83.5927C51.2524 81.7723 51.5569 79.8443 51.8235 77.8992C52.4774 73.1275 52.3302 68.3305 52.3105 63.5412C52.2802 56.1535 52.152 48.7664 51.8019 41.3852C51.7716 40.7476 51.8083 40.1068 51.8095 39.4675C51.8123 38.0079 52.5906 37.0798 53.8537 36.5018C55.3605 35.8123 56.9411 35.7141 58.5368 36.0591C60.5709 36.4988 61.3701 37.52 61.5694 39.6133C62.577 50.1993 62.9059 60.8048 62.614 71.4354C62.4744 76.5201 62.2754 81.5916 60.5357 86.4375C58.1359 93.1218 52.1873 97.1984 45.0788 97.1562C40.0627 97.1265 35.5404 95.828 31.9665 92.0899C29.1219 89.1146 27.5253 85.5006 26.7185 81.5014C26.6475 81.1492 26.5924 80.7937 26.518 80.3389Z" fill="#262688"/>
<path d="M93.2861 31.2053C99.1648 31.3739 104.302 33.1359 108.342 37.3927C111.34 40.551 112.965 44.4168 113.565 48.7284C114.097 52.5535 113.757 56.3079 112.572 59.9649C110.255 67.1192 103.919 71.9764 96.3983 72.5775C91.5915 72.9617 86.9686 72.4164 82.8282 69.8239C76.5788 65.9109 73.6279 60.0689 73.4848 52.7607C73.3804 47.4255 74.5126 42.4087 77.9541 38.1899C81.8622 33.399 87.0595 31.2583 93.2861 31.2053ZM85.6291 43.9398C83.0125 47.0994 82.5258 50.803 83.139 54.6704C83.7565 58.5643 85.8331 61.534 89.6249 62.8931C93.6046 64.3196 97.4831 64.0238 100.912 61.2923C104.593 58.3598 105.281 54.2974 104.808 49.9502C104.321 45.4783 101.713 42.5767 97.5155 41.2212C93.1441 39.8096 89.0955 40.3345 85.6291 43.9398Z" fill="#262688"/>
<path d="M185.498 61.7526C193.372 65.4444 201.386 66.4664 209.372 62.7954C215.926 59.7832 220.237 54.46 222.7 47.6634C222.89 47.1391 223.015 46.5915 223.193 46.0622C223.858 44.0766 224.882 43.2447 226.701 43.1951C228.593 43.1436 230.133 44.1248 230.823 45.8856C231.601 47.8713 231.469 49.8757 230.835 51.8722C229.166 57.1296 226.034 61.4031 221.898 64.9456C215.739 70.2212 208.537 72.7589 200.467 72.7857C188.789 72.8244 178.493 69.308 170.433 60.5188C166.401 56.1208 163.818 50.9003 163.322 44.8734C163.036 41.402 163.347 37.9162 164.714 34.6338C165.681 32.311 167.62 31.3007 169.644 31.9795C171.803 32.7037 173.488 35.3806 172.956 37.4671C171.269 44.089 173.321 49.7541 177.333 54.9064C179.538 57.7386 182.201 60.0655 185.498 61.7526Z" fill="#262688"/>
<path d="M180.333 28.0202C179.183 28.3998 178.259 28.205 177.598 27.2705C176.846 26.2085 177.105 25.1473 177.741 24.1366C179.376 21.5385 183.401 19.9731 186.573 20.5754C192.656 21.7302 194.87 26.6257 195.512 31.0684C195.659 32.0823 194.902 33.0086 193.96 33.1833C193.057 33.3509 192.098 32.7189 191.825 31.6769C191.469 30.3213 191.059 29.0038 190.337 27.783C188.45 24.5902 184.167 23.5959 181.7 26.9253C181.369 27.3726 180.936 27.7393 180.333 28.0202Z" fill="#262688"/>
<path d="M58.8596 33.4397C56.4399 34.1117 54.2389 33.8481 52.3119 32.3438C49.7437 30.339 49.85 26.7907 52.4739 24.8684C54.8978 23.0926 58.6918 23.3371 60.9069 25.3356C63.0766 27.2931 63.2601 31.8599 58.8596 33.4397Z" fill="#262688"/>
<path d="M204.952 34.3961C203.523 33.2898 203.436 31.9187 204.698 30.5544C205.747 29.4195 207.048 28.6237 208.531 28.2089C211.38 27.4122 214.195 27.3861 216.884 28.8335C219.295 30.131 220.306 32.3074 220.562 34.9054C220.667 35.9717 220.016 36.7784 219.068 36.8915C218.018 37.0167 217.126 36.5438 216.955 35.5492C216.551 33.1956 215.18 32.0031 212.915 31.8944C210.938 31.7995 208.996 32.0386 207.62 33.7763C206.935 34.6419 206.042 34.7771 204.952 34.3961Z" fill="#262688"/>
</svg>
