<svg width="101" height="70" viewBox="0 0 101 70" fill="none" xmlns="http://www.w3.org/2000/svg">
<path d="M30.1057 1.36343C36.1949 4.35172 43.7367 8.61553 52.2842 6.18244C53.6426 5.79577 56.3722 4.28079 57.349 3.88633C60.6284 2.66167 63.4266 1.24051 74.3539 1.17433C82.9594 3.06169 89.2252 5.36882 91.4754 7.71021C94.6726 11.0368 101.105 19.2446 100.999 26.3165C100.87 34.857 100.041 44.2819 95.7226 49.8346C91.7589 54.9308 89.1303 57.8678 87.5248 58.8067C82.9592 61.477 72.0719 66.1066 61.6834 68.2356C56.5786 69.2818 45.8682 71.2254 33.7987 68.919L33.41 68.8447C23.4194 66.9359 18.0999 65.9195 13.5703 63.0563C8.59706 59.9127 0.975017 55.8902 0.164294 47.0573C-0.780273 36.7661 2.56286 19.7865 4.71226 14.1047C6.06253 10.5354 7.66162 6.57292 10.0485 4.49394C12.842 2.06083 22.8541 -2.19535 30.1057 1.36343Z" fill="#D2FB6C"/>
<path d="M54 31.7321C54.1224 31.4417 54.5313 30.5738 54.8822 29.7496C55.2413 28.9064 56.0928 28.0649 56.627 27.4805C57.3767 26.6603 58.8949 25.9285 60.8351 25.4159C64.0502 24.5665 66.4928 25.2447 67.2601 25.469C69.0529 25.9931 70.2624 26.8118 71.0532 27.3996C72 28.1035 72.7417 29.3773 73.423 30.606C73.5842 30.8966 73.6786 31.0881 73.752 31.2665C73.8254 31.4449 73.8748 31.6043 74 32" stroke="#262688" stroke-width="2" stroke-linecap="round"/>
<path d="M27 31.7321C27.1224 31.4417 27.5313 30.5738 27.8822 29.7496C28.2413 28.9064 29.0928 28.0649 29.627 27.4805C30.3767 26.6603 31.8949 25.9285 33.8351 25.4159C37.0502 24.5665 39.4928 25.2447 40.2601 25.469C42.0529 25.9931 43.2624 26.8118 44.0532 27.3996C45 28.1035 45.7417 29.3773 46.423 30.606C46.5842 30.8966 46.6786 31.0881 46.752 31.2665C46.8254 31.4449 46.8748 31.6043 47 32" stroke="#262688" stroke-width="2" stroke-linecap="round"/>
<path d="M26 39C26.1286 39.2279 26.7469 39.8926 27.4037 40.4473C28.2764 41.1842 29.1213 41.5724 32.6547 43.6077C33.9153 44.3338 35.9672 45.0072 38.4948 45.7846C39.7861 46.1818 41.5291 46.4249 45.2465 46.8277C47.6036 47.0832 50.9945 47.0134 53.5785 46.8822C56.1624 46.751 57.8566 46.4508 59.6932 46.0051C63.513 45.0781 65.9668 44.1767 67.7067 43.407C70.8176 41.9062 73.0569 40.7251 73.6603 40.2951C73.976 40.0865 74.3108 39.8973 75 39.4908" stroke="#262688" stroke-width="2" stroke-linecap="round"/>
</svg>
