<svg width="96" height="73" viewBox="0 0 96 73" fill="none" xmlns="http://www.w3.org/2000/svg">
<path d="M35.3897 0.247868C49.1681 0.0213654 57.9718 0 58.0297 0C59.3618 0 62.1079 0.647643 63.2465 0.861264C65.9779 1.36442 66.907 2.34046 70.5831 3.62939C75.504 5.95754 82.7072 10.1998 87.7452 17.9396C92.7151 25.5747 97.3711 32.8002 95.6261 44.6439C94.3493 53.31 92.6032 58.3409 88.6989 61.4668C82.492 66.4363 71.7666 73.1017 61.2303 72.9988C49.8308 72.8875 38.7186 72.4301 32.04 70.6559C26.6267 69.2179 18.7593 66.4297 11.1647 61.9267C7.54292 59.7792 4.7116 57.5475 2.93136 53.6787C0.303062 47.9669 -1.52705 38.2443 1.79241 31.1177C4.21467 25.9173 7.61739 17.8718 15.5358 11.3619C23.8843 4.49842 29.3799 0.346663 35.3897 0.247868Z" fill="#A7DFFF"/>
<path d="M51 27.2296C51.1224 27.4785 51.5313 28.2224 51.8822 28.9289C52.2413 29.6517 53.0928 30.3729 53.627 30.8739C54.3767 31.5769 55.8949 32.2042 57.8351 32.6435C61.0502 33.3715 63.4928 32.7903 64.2601 32.598C66.0529 32.1488 67.2624 31.4471 68.0532 30.9432C69 30.3399 69.7417 29.2481 70.423 28.1949C70.5842 27.9458 70.6786 27.7816 70.752 27.6287C70.8254 27.4758 70.8748 27.3392 71 27" stroke="#262688" stroke-width="2" stroke-linecap="round"/>
<path d="M25 27.2296C25.1224 27.4785 25.5313 28.2224 25.8822 28.9289C26.2413 29.6517 27.0928 30.3729 27.627 30.8739C28.3767 31.5769 29.8949 32.2042 31.8351 32.6435C35.0502 33.3715 37.4928 32.7903 38.2601 32.598C40.0529 32.1488 41.2624 31.4471 42.0532 30.9432C43 30.3399 43.7417 29.2481 44.423 28.1949C44.5842 27.9458 44.6786 27.7816 44.752 27.6287C44.8254 27.4758 44.8748 27.3392 45 27" stroke="#262688" stroke-width="2" stroke-linecap="round"/>
<path d="M23 48C23.1312 47.7721 23.7622 47.1074 24.4324 46.5527C25.3228 45.8158 26.185 45.4276 29.7905 43.3923C31.0768 42.6662 33.1706 41.9928 35.7498 41.2154C37.0675 40.8182 38.846 40.5751 42.6392 40.1723C45.0445 39.9168 48.5046 39.9866 51.1413 40.1178C53.778 40.249 55.5068 40.5492 57.3808 40.9949C61.2786 41.9219 63.7825 42.8233 65.5579 43.593C68.7322 45.0938 71.0172 46.2749 71.6329 46.7049C71.9551 46.9135 72.2968 47.1027 73 47.5092" stroke="#262688" stroke-width="2" stroke-linecap="round"/>
</svg>
