<svg width="613" height="613" viewBox="0 0 613 613" fill="none" xmlns="http://www.w3.org/2000/svg">
<circle cx="251.2" cy="251.2" r="251.2" transform="matrix(-0.967674 0.252206 0.252206 0.967674 486.159 0)" fill="#DAFF7E"/>
<path d="M405.935 192.678C405.59 193.982 403.372 198.101 400.819 201.722C397.426 206.532 393.718 209.566 378.749 224.31C373.408 229.571 364.054 235.596 352.463 242.759C346.542 246.418 338.169 249.895 320.16 256.735C308.74 261.072 291.744 265.13 278.691 267.833C265.638 270.536 256.802 271.24 247.066 271.403C226.817 271.742 213.412 270.434 203.737 268.855C186.276 265.41 173.577 262.428 170.009 261.067C168.164 260.437 166.249 259.928 162.285 258.796" stroke="#262688" stroke-width="10" stroke-linecap="round"/>
<circle cx="312.42" cy="160.419" r="45" transform="rotate(-8.89851 312.42 160.419)" fill="white"/>
<ellipse cx="307.982" cy="135.304" rx="21.5" ry="19.5" transform="rotate(-8.89851 307.982 135.304)" fill="#0B0B0B"/>
<circle cx="230.419" cy="173.258" r="45" transform="rotate(-8.89851 230.419 173.258)" fill="white"/>
<ellipse cx="225.487" cy="148.22" rx="21" ry="19.5" transform="rotate(-8.89851 225.487 148.22)" fill="#0B0B0B"/>
</svg>
