<svg width="502" height="534" viewBox="0 0 502 534" fill="none" xmlns="http://www.w3.org/2000/svg">
<circle cx="245.196" cy="288.741" r="201" transform="rotate(14.6081 245.196 288.741)" fill="#FFF12E"/>
<path d="M166.805 34.8414C167.78 32.0402 171.795 32.2019 172.541 35.0724L180.274 64.8011C180.507 65.6966 181.14 66.4345 181.989 66.8008L208.671 78.3035C211.195 79.3915 211.049 83.0182 208.446 83.8998L180.926 93.2199C180.049 93.5167 179.359 94.2014 179.055 95.0752L168.957 124.086C167.982 126.887 163.967 126.725 163.22 123.855L155.488 94.1263C155.255 93.2308 154.622 92.4929 153.772 92.1266L127.091 80.6239C124.567 79.5359 124.713 75.9091 127.316 75.0276L154.836 65.7074C155.712 65.4106 156.403 64.726 156.707 63.8521L166.805 34.8414Z" fill="#FFA9E8"/>
<path d="M277.822 203.21C278.586 202.294 281.041 199.603 283.222 197.008C285.454 194.353 289.662 192.219 292.354 190.678C296.134 188.515 302.916 187.473 311.188 187.662C324.894 187.974 334.068 192.968 336.94 194.577C343.648 198.338 347.739 202.546 350.364 205.487C353.506 209.007 355.292 214.362 356.877 219.491C357.252 220.704 357.452 221.492 357.579 222.21C357.707 222.927 357.756 223.552 357.888 225.106" stroke="#262688" stroke-width="10" stroke-linecap="round"/>
<path d="M177.427 176.049C178.18 175.174 180.604 172.603 182.755 170.121C184.957 167.583 189.134 165.566 191.806 164.106C195.556 162.056 202.311 161.116 210.565 161.375C224.241 161.804 233.439 166.705 236.319 168.283C243.046 171.971 247.166 176.066 249.812 178.925C252.98 182.349 254.812 187.527 256.441 192.487C256.826 193.66 257.033 194.421 257.167 195.114C257.301 195.807 257.356 196.41 257.502 197.908" stroke="#262688" stroke-width="10" stroke-linecap="round"/>
<path d="M165.578 197.719C165.854 198.762 167.629 202.058 169.672 204.955C172.387 208.804 175.354 211.232 187.332 223.03C191.605 227.239 199.09 232.06 208.364 237.792C213.102 240.719 219.802 243.502 234.213 248.975C243.35 252.445 256.949 255.692 267.394 257.855C277.838 260.018 284.909 260.581 292.699 260.712C308.901 260.983 319.628 259.936 327.37 258.673C341.341 255.917 351.502 253.53 354.357 252.441C355.833 251.937 357.366 251.53 360.538 250.624" stroke="#262688" stroke-width="10" stroke-linecap="round"/>
<circle cx="379.347" cy="237.932" r="10" transform="rotate(14.6081 379.347 237.932)" fill="#FFA9E8"/>
<circle cx="154.342" cy="181.356" r="10" transform="rotate(14.6081 154.342 181.356)" fill="#FFA9E8"/>
</svg>
